<?xml version="1.0" encoding="UTF-8" standalone="no"?>
<svg width="256px" height="34px" viewBox="0 0 256 34" version="1.1" xmlns="http://www.w3.org/2000/svg" xmlns:xlink="http://www.w3.org/1999/xlink">
    <!-- Generator: Sketch 3.8.3 (29802) - http://www.bohemiancoding.com/sketch -->
    <title>Logo</title>
    <desc>Created with Sketch.</desc>
    <defs>
        <polygon id="path-1" points="0.8437 24 18.0077 24 18.0077 0.0242 0.8437 0.0242 0.8437 24"></polygon>
        <polygon id="path-3" points="12.118 23.5172 12.118 0.5072 0.4223 0.5072 0.4223 23.5172 12.118 23.5172"></polygon>
        <polygon id="path-5" points="24.5366 0.984 0.9026 0.984 0.9026 24.6179 24.5366 24.6179 24.5366 0.984"></polygon>
    </defs>
    <g id="Website" stroke="none" stroke-width="1" fill="none" fill-rule="evenodd">
        <g id="Single-page---Desktop-HD---Ful-gradien" transform="translate(-602.000000, -51.000000)">
            <g id="//-Header" transform="translate(554.000000, 50.000000)">
                <g id="Logo" transform="translate(48.000000, 0.000000)">
                    <polygon id="Fill-1" fill="#CEA92A" points="0 11.5234 0 34.5334 11.695 34.5334 11.695 29.9314 4.521 29.9314 4.521 11.5234"></polygon>
                    <polygon id="Fill-2" fill="#CEA92A" points="55.0827 11.5234 49.3927 20.6954 49.3927 11.5234 44.8727 11.5234 44.8727 34.5334 49.3927 34.5334 49.3927 25.5224 55.3997 34.5334 60.9937 34.5334 53.0287 22.8834 60.3617 11.5234"></polygon>
                    <polygon id="Fill-3" fill="#CEA92A" points="66.8106 11.5549 66.8106 16.1249 72.4376 16.1249 72.4376 34.5339 76.9576 34.5339 76.9576 16.1249 82.5836 16.1249 82.5836 11.5549"></polygon>
                    <g id="Group-23" transform="translate(14.000000, 0.016100)">
                        <path d="M76.6144,26.5038 L76.6144,11.5068 L81.1344,11.5068 L81.1344,26.4718 C81.1344,31.2988 88.4684,31.2988 88.4684,26.4718 L88.4684,11.5068 L92.9574,11.5068 L92.9574,26.5038 C92.9574,37.4458 76.6144,37.4458 76.6144,26.5038" id="Fill-4" fill="#CEA92A"></path>
                        <polygon id="Fill-6" fill="#CEA92A" points="120.9329 16.1089 120.9329 20.7109 126.6859 20.7109 126.6859 25.3129 120.9329 25.3129 120.9329 34.5169 116.4129 34.5169 116.4129 11.5069 127.6969 11.5069 127.6969 16.1089"></polygon>
                        <polygon id="Fill-8" fill="#CEA92A" points="136.1692 34.5172 136.1692 11.5072 147.4852 11.5072 147.4852 16.1092 140.6892 16.1092 140.6892 20.7112 146.6322 20.7112 146.6322 25.3132 140.6892 25.3132 140.6892 29.9152 147.8652 29.9152 147.8652 34.5172"></polygon>
                        <g id="Group-12" transform="translate(156.000000, 11.000000)">
                            <mask id="mask-2" fill="white">
                                <use xlink:href="#path-1"></use>
                            </mask>
                            <g id="Clip-11"></g>
                            <polygon id="Fill-10" fill="#CEA92A" mask="url(#mask-2)" points="5.3637 23.5172 0.8437 23.5172 0.8437 0.0242 13.4557 12.5272 13.4557 0.5392 18.0077 0.5392 18.0077 24.0002 5.3637 12.0122"></polygon>
                        </g>
                        <path d="M183.3651,28.2095 C185.9571,30.0765 188.7701,30.1405 189.8141,30.0435 C191.1411,29.9475 192.2791,28.9815 192.1531,27.7265 C192.0581,26.4075 191.0781,25.8285 189.8141,25.3775 C186.2731,24.0575 183.1121,22.2235 183.1121,18.3615 C183.1121,14.4995 185.7361,11.5395 189.4971,11.3455 C190.6671,11.2815 192.2161,11.2815 195.1241,12.3115 L194.5551,16.7525 C192.0581,15.7225 190.6351,15.7545 189.9401,15.7875 C188.3281,15.8835 187.6011,17.0745 187.6961,18.3615 C187.8221,19.6495 188.9291,20.2285 190.2241,20.6785 C193.7331,21.9985 196.7681,24.0575 196.7681,27.7265 C196.7681,31.5565 194.1761,34.4855 189.9401,34.7105 C188.6751,34.8065 185.8621,34.6455 182.7961,33.0365 L183.3651,28.2095 Z" id="Fill-13" fill="#CEA92A"></path>
                        <path d="M209.8236,21.2581 L213.8066,21.2581 C216.8726,21.2581 216.8726,16.1091 213.8066,16.1091 L209.8236,16.1091 L209.8236,21.2581 Z M216.5566,34.5171 L212.0046,25.7311 L209.8236,25.7311 L209.8236,34.5171 L205.3036,34.5171 L205.3036,11.5071 L214.2176,11.5071 C222.2776,11.5071 223.0676,23.0601 216.4296,25.0231 L221.6776,34.5171 L216.5566,34.5171 Z" id="Fill-15" fill="#CEA92A"></path>
                        <g id="Group-19" transform="translate(229.000000, 11.000000)">
                            <mask id="mask-4" fill="white">
                                <use xlink:href="#path-3"></use>
                            </mask>
                            <g id="Clip-18"></g>
                            <polygon id="Fill-17" fill="#CEA92A" mask="url(#mask-4)" points="0.4223 23.5172 0.4223 0.5072 11.7383 0.5072 11.7383 5.1092 4.9423 5.1092 4.9423 9.7112 10.8853 9.7112 10.8853 14.3132 4.9423 14.3132 4.9423 18.9152 12.1183 18.9152 12.1183 23.5172"></polygon>
                        </g>
                        <g id="Group-22">
                            <mask id="mask-6" fill="white">
                                <use xlink:href="#path-5"></use>
                            </mask>
                            <g id="Clip-21"></g>
                            <path d="M12.7196,5.4839 C8.6846,5.4839 5.4026,8.7659 5.4026,12.8009 C5.4026,16.8349 8.6846,20.1179 12.7196,20.1179 C16.7546,20.1179 20.0366,16.8349 20.0366,12.8009 C20.0366,8.7659 16.7546,5.4839 12.7196,5.4839 M12.7196,24.6179 C6.2036,24.6179 0.9026,19.3169 0.9026,12.8009 C0.9026,6.2849 6.2036,0.9839 12.7196,0.9839 C19.2356,0.9839 24.5366,6.2849 24.5366,12.8009 C24.5366,19.3169 19.2356,24.6179 12.7196,24.6179" id="Fill-20" fill="#CEA92A" mask="url(#mask-6)"></path>
                        </g>
                    </g>
                </g>
            </g>
        </g>
    </g>
</svg>